HIERARCHY
ROOT hip
{
  OFFSET 0.0 0.0 0.0
  CHANNELS 6 Xposition Yposition Zposition Zrotation Yrotation Xrotation
  JOINT abdomen
  {
    OFFSET 0.0 20.6881 -0.73152
    CHANNELS 3 Zrotation Xrotation Yrotation
    JOINT chest
    {
      OFFSET 0.0 11.7043 -0.48768
      CHANNELS 3 Zrotation Xrotation Yrotation
      JOINT neck
      {
        OFFSET 0.0 22.1894 -2.19456
        CHANNELS 3 Zrotation Xrotation Yrotation
        JOINT head
        {
          OFFSET -0.24384 7.07133 1.2192
          CHANNELS 3 Zrotation Xrotation Yrotation
          JOINT leftEye
          {
            OFFSET 4.14528 8.04674 8.04672
            CHANNELS 3 Zrotation Xrotation Yrotation
            End Site
            {
              OFFSET 1.0 0.0 0.0
            }
          }
          JOINT rightEye
          {
            OFFSET -3.6576 8.04674 8.04672
            CHANNELS 3 Zrotation Xrotation Yrotation
            End Site
            {
              OFFSET 1.0 0.0 0.0
            }
          }
        }
      }
      JOINT rCollar
      {
        OFFSET -2.68224 19.2634 -4.8768
        CHANNELS 3 Zrotation Xrotation Yrotation
        JOINT rShldr
        {
          OFFSET -8.77824 -1.95073 1.46304
          CHANNELS 3 Zrotation Xrotation Yrotation
          JOINT rForeArm
          {
            OFFSET -28.1742 -1.7115 0.48768
            CHANNELS 3 Zrotation Xrotation Yrotation
            JOINT rHand
            {
              OFFSET -22.5879 0.773209 7.07136
              CHANNELS 3 Zrotation Xrotation Yrotation
              JOINT rThumb1
              {
                OFFSET -1.2192 -0.487915 3.41376
                CHANNELS 3 Zrotation Xrotation Yrotation
                JOINT rThumb2
                {
                  OFFSET -3.37035 -0.52449 3.41376
                  CHANNELS 3 Zrotation Xrotation Yrotation
                  End Site
                  {
                    OFFSET -1.78271 -1.18214 1.43049
                  }
                }
              }
              JOINT rIndex1
              {
                OFFSET -7.75947 0.938293 5.60832
                CHANNELS 3 Zrotation Xrotation Yrotation
                JOINT rIndex2
                {
                  OFFSET -2.54057 -0.884171 1.56538
                  CHANNELS 3 Zrotation Xrotation Yrotation
                  End Site
                  {
                    OFFSET -1.62519 -0.234802 1.16502
                  }
                }
              }
              JOINT rMid1
              {
                OFFSET -8.24714 1.18213 3.41376
                CHANNELS 3 Zrotation Xrotation Yrotation
                JOINT rMid2
                {
                  OFFSET -3.10165 -0.590103 1.0647
                  CHANNELS 3 Zrotation Xrotation Yrotation
                  End Site
                  {
                    OFFSET -2.48547 -0.328903 0.83742
                  }
                }
              }
              JOINT rRing1
              {
                OFFSET -8.82822 0.546677 1.51678
                CHANNELS 3 Zrotation Xrotation Yrotation
                JOINT rRing2
                {
                  OFFSET -2.60934 -0.819778 -0.0198488
                  CHANNELS 3 Zrotation Xrotation Yrotation
                  End Site
                  {
                    OFFSET -2.33842 -0.294052 0.168128
                  }
                }
              }
              JOINT rPinky1
              {
                OFFSET -8.27202 -0.0477905 -0.4584
                CHANNELS 3 Zrotation Xrotation Yrotation
                JOINT rPinky2
                {
                  OFFSET -1.82734 -0.647385 -0.700984
                  CHANNELS 3 Zrotation Xrotation Yrotation
                  End Site
                  {
                    OFFSET -1.69225 -0.51767 -0.607171
                  }
                }
              }
            }
          }
        }
      }
      JOINT lCollar
      {
        OFFSET 2.68224 19.2634 -4.8768
        CHANNELS 3 Zrotation Xrotation Yrotation
        JOINT lShldr
        {
          OFFSET 8.77824 -1.95073 1.46304
          CHANNELS 3 Zrotation Xrotation Yrotation
          JOINT lForeArm
          {
            OFFSET 28.1742 -1.7115 0.48768
            CHANNELS 3 Zrotation Xrotation Yrotation
            JOINT lHand
            {
              OFFSET 22.5879 0.773209 7.07136
              CHANNELS 3 Zrotation Xrotation Yrotation
              JOINT lThumb1
              {
                OFFSET 1.2192 -0.487915 3.41376
                CHANNELS 3 Zrotation Xrotation Yrotation
                JOINT lThumb2
                {
                  OFFSET 3.37035 -0.52449 3.41376
                  CHANNELS 3 Zrotation Xrotation Yrotation
                  End Site
                  {
                    OFFSET 1.78271 -1.18214 1.43049
                  }
                }
              }
              JOINT lIndex1
              {
                OFFSET 7.75947 0.938293 5.60832
                CHANNELS 3 Zrotation Xrotation Yrotation
                JOINT lIndex2
                {
                  OFFSET 2.54057 -0.884171 1.56538
                  CHANNELS 3 Zrotation Xrotation Yrotation
                  End Site
                  {
                    OFFSET 1.62519 -0.234802 1.16502
                  }
                }
              }
              JOINT lMid1
              {
                OFFSET 8.24714 1.18213 3.41376
                CHANNELS 3 Zrotation Xrotation Yrotation
                JOINT lMid2
                {
                  OFFSET 3.10165 -0.590103 1.0647
                  CHANNELS 3 Zrotation Xrotation Yrotation
                  End Site
                  {
                    OFFSET 2.48547 -0.328903 0.83742
                  }
                }
              }
              JOINT lRing1
              {
                OFFSET 8.82822 0.546677 1.51678
                CHANNELS 3 Zrotation Xrotation Yrotation
                JOINT lRing2
                {
                  OFFSET 2.60934 -0.819778 -0.0198488
                  CHANNELS 3 Zrotation Xrotation Yrotation
                  End Site
                  {
                    OFFSET 2.33842 -0.294052 0.168128
                  }
                }
              }
              JOINT lPinky1
              {
                OFFSET 8.27202 -0.0477905 -0.4584
                CHANNELS 3 Zrotation Xrotation Yrotation
                JOINT lPinky2
                {
                  OFFSET 1.82734 -0.647385 -0.700984
                  CHANNELS 3 Zrotation Xrotation Yrotation
                  End Site
                  {
                    OFFSET 1.69225 -0.51767 -0.607171
                  }
                }
              }
            }
          }
        }
      }
    }
  }
  JOINT rButtock
  {
    OFFSET -8.77824 4.35084 1.2192
    CHANNELS 3 Zrotation Xrotation Yrotation
    JOINT rThigh
    {
      OFFSET 0.0 -1.70687 -2.19456
      CHANNELS 3 Zrotation Xrotation Yrotation
      JOINT rShin
      {
        OFFSET 0.0 -36.8199 0.73152
        CHANNELS 3 Zrotation Xrotation Yrotation
        JOINT rFoot
        {
          OFFSET 0.73152 -45.1104 -5.12064
          CHANNELS 3 Zrotation Xrotation Yrotation
          End Site
          {
            OFFSET -1.1221 -3.69964 12.103
          }
        }
      }
    }
  }
  JOINT lButtock
  {
    OFFSET 8.77824 4.35084 1.2192
    CHANNELS 3 Zrotation Xrotation Yrotation
    JOINT lThigh
    {
      OFFSET 0.0 -1.70687 -2.19456
      CHANNELS 3 Zrotation Xrotation Yrotation
      JOINT lShin
      {
        OFFSET 0.0 -36.8199 0.73152
        CHANNELS 3 Zrotation Xrotation Yrotation
        JOINT lFoot
        {
          OFFSET -0.73152 -45.1104 -5.12064
          CHANNELS 3 Zrotation Xrotation Yrotation
          End Site
          {
            OFFSET 1.1221 -3.69964 12.103
          }
        }
      }
    }
  }
}
MOTION
Frames: 7
Frame Time: 0.00833333
3.19127 83.2788 -92.9752 -4.6131 12.3596 -3.6505 6.00383 5.83975 1.25615 0.935781 -3.23625 0.580202 5.65657 -4.53656 1.49749 -13.623 -12.4953 -0.509706 -0.0 0.0 0.0 -0.0 0.0 0.0 -2.51948e-13 1.59622e-13 3.11694e-13 55.7865 14.5286 28.5131 -20.2939 -13.3859 39.3982 -0.719274 -23.3546 -3.47915 5.38403e-11 3.04421e-10 4.49018e-10 8.39861e-11 6.12832e-10 7.79358e-10 5.38436e-11 3.04427e-10 4.49012e-10 7.73091 5.47488 0.417314 5.38387e-11 3.04429e-10 4.49018e-10 2.90554 0.965183 0.102902 5.38444e-11 3.04428e-10 4.49026e-10 10.2786 0.731801 0.0259123 5.38325e-11 3.04424e-10 4.49037e-10 2.22167 -0.733487 -0.20892 -2.51888e-13 1.59626e-13 3.11645e-13 -78.8643 10.9344 13.8037 14.5955 -7.4452 -26.7602 0.148621 -10.9235 1.55426 2.49392e-09 -1.15662e-09 7.35685e-10 4.29951e-09 -2.00946e-09 1.29242e-09 2.49392e-09 -1.15662e-09 7.35685e-10 -7.73091 5.47488 -0.417314 2.49392e-09 -1.15662e-09 7.35681e-10 -2.90554 0.965183 -0.102902 2.49391e-09 -1.15662e-09 7.35683e-10 -10.2786 0.731801 -0.0259123 2.49392e-09 -1.15662e-09 7.35681e-10 -2.22167 -0.733487 0.20892 -2.03217e-16 0.0 -3.88251e-19 6.04446 -10.3508 -5.96026 -0.161208 31.4551 0.507438 -7.16975 -7.89322 -28.9898 2.03217e-16 0.0 3.88251e-19 15.6604 -25.0688 5.12249 1.96821 69.4156 -2.4095 0.825944 2.57731 5.0901
3.16951 83.4235 -92.1521 -4.9541 12.3148 -3.7336 6.21745 5.76829 2.01413 0.466028 -3.20172 0.780825 5.35092 -4.62382 1.18402 -13.2202 -12.7183 -1.01832 -0.0 0.0 0.0 -0.0 0.0 0.0 -2.09353e-13 1.04495e-13 3.40789e-13 54.5256 13.1225 29.1896 -20.8596 -14.1291 40.8134 -0.792847 -24.426 -3.65976 -5.28918e-11 -3.39842e-09 3.24891e-10 -9.66085e-11 -5.79078e-09 5.62992e-10 -5.28903e-11 -3.39841e-09 3.24887e-10 7.73091 5.47488 0.417314 -5.28938e-11 -3.39841e-09 3.24893e-10 2.90554 0.965183 0.102902 -5.28883e-11 -3.39841e-09 3.24898e-10 10.2786 0.731801 0.0259123 -5.28995e-11 -3.39841e-09 3.24909e-10 2.22167 -0.733487 -0.20892 -2.09304e-13 1.04498e-13 3.40762e-13 -78.3358 7.72742 15.5929 13.8816 -6.84721 -25.3489 0.0870078 -8.76172 1.24051 1.87421e-09 -1.04104e-09 5.45648e-10 3.22868e-09 -1.80974e-09 9.60095e-10 1.87421e-09 -1.04104e-09 5.4565e-10 -7.73091 5.47488 -0.417314 1.87421e-09 -1.04104e-09 5.45645e-10 -2.90554 0.965183 -0.102902 1.8742e-09 -1.04104e-09 5.45646e-10 -10.2786 0.731801 -0.0259123 1.87421e-09 -1.04104e-09 5.45644e-10 -2.22167 -0.733487 0.20892 -2.03217e-16 0.0 -3.88251e-19 6.53813 -9.14936 -5.89084 -0.142525 30.3525 0.502032 -7.07469 -7.93238 -28.8557 2.03217e-16 0.0 3.88251e-19 16.0612 -26.3794 5.52604 1.90898 68.9883 -2.35154 0.91094 1.9982 5.36182
3.15697 83.551 -91.3286 -5.2871 12.3226 -3.821 6.42095 5.71842 2.75602 0.00217709 -3.17238 0.976639 5.03155 -4.68446 0.854342 -12.8126 -13.0069 -1.55721 -0.0 0.0 0.0 -0.0 0.0 0.0 -1.17844e-13 6.99464e-15 2.91303e-13 53.2347 11.6048 29.7841 -21.3826 -14.8574 42.1399 -0.867589 -25.4601 -3.83699 3.55917e-11 -9.87441e-09 -9.01162e-11 6.54364e-11 -1.70095e-08 -1.54473e-10 3.55909e-11 -9.8744e-09 -9.01194e-11 7.73091 5.47488 0.417314 3.55895e-11 -9.8744e-09 -9.01141e-11 2.90554 0.965183 0.102902 3.55942e-11 -9.8744e-09 -9.01121e-11 10.2786 0.731801 0.0259123 3.55843e-11 -9.8744e-09 -9.01029e-11 2.22167 -0.733487 -0.20892 -1.17838e-13 6.99762e-15 2.91279e-13 -77.4045 4.2895 17.4376 13.2534 -6.3601 -24.0867 0.0358597 -6.33309 0.892585 7.74773e-10 -4.50355e-10 -1.11494e-13 1.33279e-09 -7.84349e-10 9.31677e-12 7.74772e-10 -4.50353e-10 -1.06942e-13 -7.73091 5.47488 -0.417314 7.74773e-10 -4.50356e-10 -1.16296e-13 -2.90554 0.965183 -0.102902 7.74765e-10 -4.50354e-10 -1.14658e-13 -10.2786 0.731801 -0.0259123 7.74779e-10 -4.50354e-10 -1.19266e-13 -2.22167 -0.733487 0.20892 -2.03217e-16 0.0 -3.88251e-19 7.01278 -7.97147 -5.88073 -0.12484 29.2885 0.49946 -6.98365 -7.97109 -28.723 2.03217e-16 0.0 3.88251e-19 16.4312 -27.6626 5.87618 1.83598 68.436 -2.27999 0.996121 1.4911 5.65231
3.14722 83.6253 -90.516 -5.6307 12.3816 -3.9099 6.6012 5.68504 3.46636 -0.438185 -3.14176 1.16373 4.70221 -4.73237 0.520719 -12.4021 -13.3138 -2.09906 -0.0 0.0 0.0 -0.0 0.0 0.0 -2.01388e-14 -9.109e-14 2.23389e-13 51.9122 9.99252 30.3109 -21.8495 -15.5374 43.365 -0.945045 -26.4788 -4.01447 1.4753e-10 -1.62445e-08 -5.34833e-10 2.68293e-10 -2.80552e-08 -9.23407e-10 1.47527e-10 -1.62445e-08 -5.34834e-10 7.73091 5.47488 0.417314 1.47528e-10 -1.62445e-08 -5.3483e-10 2.90554 0.965183 0.102902 1.47532e-10 -1.62445e-08 -5.34832e-10 10.2786 0.731801 0.0259123 1.47523e-10 -1.62445e-08 -5.34824e-10 2.22167 -0.733487 -0.20892 -2.01859e-14 -9.10878e-14 2.23353e-13 -76.146 0.812552 19.3305 12.7022 -5.95503 -22.9776 0.0100968 -4.04783 0.568986 -3.27231e-10 1.8646e-10 -5.54961e-10 -5.66683e-10 3.21997e-10 -9.57351e-10 -3.27233e-10 1.86465e-10 -5.54954e-10 -7.73091 5.47488 -0.417314 -3.2723e-10 1.86461e-10 -5.54967e-10 -2.90554 0.965183 -0.102902 -3.27238e-10 1.86461e-10 -5.54966e-10 -10.2786 0.731801 -0.0259123 -3.27224e-10 1.86461e-10 -5.54972e-10 -2.22167 -0.733487 0.20892 -2.03217e-16 0.0 -3.88251e-19 7.46711 -6.80353 -5.91915 -0.107883 28.2287 0.498023 -6.89247 -8.00136 -28.5967 2.03217e-16 0.0 3.88251e-19 16.7591 -28.9083 6.16064 1.75051 67.7495 -2.19567 1.07958 1.04283 5.944
3.14594 83.7188 -89.7077 -5.9462 12.5073 -3.9831 6.74534 5.66311 4.12966 -0.837545 -3.10339 1.33817 4.36639 -4.78147 0.19538 -11.9884 -13.592 -2.61602 -0.0 0.0 0.0 -0.0 0.0 0.0 4.10453e-14 -1.47972e-13 1.97194e-13 50.5562 8.30198 30.7835 -22.251 -16.139 44.4735 -1.02736 -27.5034 -4.19618 1.11163e-10 -1.96297e-08 -7.48086e-10 2.10132e-10 -3.39397e-08 -1.29418e-09 1.1116e-10 -1.96297e-08 -7.48086e-10 7.73091 5.47488 0.417314 1.11161e-10 -1.96297e-08 -7.48082e-10 2.90554 0.965183 0.102902 1.11165e-10 -1.96297e-08 -7.48086e-10 10.2786 0.731801 0.0259123 1.11156e-10 -1.96297e-08 -7.48079e-10 2.22167 -0.733487 -0.20892 4.09561e-14 -1.4797e-13 1.97145e-13 -74.6636 -2.51958 21.2548 12.2152 -5.60064 -22.0271 0.00658602 -2.31652 0.325745 -9.54652e-10 4.40434e-10 -7.72267e-10 -1.64823e-09 7.64583e-10 -1.33735e-09 -9.54655e-10 4.4044e-10 -7.72258e-10 -7.73091 5.47488 -0.417314 -9.5465e-10 4.40435e-10 -7.72274e-10 -2.90554 0.965183 -0.102902 -9.54659e-10 4.40434e-10 -7.72272e-10 -10.2786 0.731801 -0.0259123 -9.54644e-10 4.40434e-10 -7.7228e-10 -2.22167 -0.733487 0.20892 -2.03217e-16 0.0 -3.88251e-19 7.89891 -5.63188 -5.99569 -0.0915282 27.1384 0.496116 -6.79706 -8.01514 -28.4818 2.03217e-16 0.0 3.88251e-19 17.0325 -30.1064 6.36624 1.65437 66.9194 -2.09986 1.15908 0.640178 6.21933
3.15158 83.7974 -88.9035 -6.2457 12.6685 -4.0504 6.84142 5.65815 4.73835 -1.19198 -3.05449 1.49781 4.00981 -4.83742 -0.123269 -11.5437 -13.8244 -3.10047 -0.0 0.0 0.0 -0.0 0.0 0.0 5.50679e-14 -1.46192e-13 2.35495e-13 49.1453 6.51656 31.2192 -22.5998 -16.6805 45.459 -1.1159 -28.5474 -4.38484 -1.8468e-10 -1.85686e-08 -5.78584e-10 -3.04288e-10 -3.21437e-08 -1.00703e-09 -1.84683e-10 -1.85686e-08 -5.78582e-10 7.73091 5.47488 0.417314 -1.84681e-10 -1.85686e-08 -5.78581e-10 2.90554 0.965183 0.102902 -1.84676e-10 -1.85686e-08 -5.78585e-10 10.2786 0.731801 0.0259123 -1.84688e-10 -1.85686e-08 -5.78578e-10 2.22167 -0.733487 -0.20892 5.49486e-14 -1.46192e-13 2.35427e-13 -72.948 -5.74228 23.2289 11.8126 -5.31065 -21.262 0.0087152 -1.29935 0.183259 -8.90295e-10 1.27541e-10 -3.90274e-10 -1.53758e-09 2.24184e-10 -6.76524e-10 -8.90298e-10 1.27546e-10 -3.90265e-10 -7.73091 5.47488 -0.417314 -8.90294e-10 1.27541e-10 -3.9028e-10 -2.90554 0.965183 -0.102902 -8.903e-10 1.2754e-10 -3.90279e-10 -10.2786 0.731801 -0.0259123 -8.90287e-10 1.2754e-10 -3.90288e-10 -2.22167 -0.733487 0.20892 -2.03217e-16 0.0 -3.88251e-19 8.29721 -4.45456 -6.12837 -0.0754613 26.0212 0.493977 -6.69694 -8.01413 -28.3715 2.03217e-16 0.0 3.88251e-19 17.2266 -31.2564 6.47759 1.54947 65.9332 -1.99436 1.23243 0.291531 6.47529
3.16288 83.8635 -88.1033 -6.5303 12.8674 -4.1099 6.89808 5.67076 5.30193 -1.51062 -2.99889 1.64509 3.63577 -4.89213 -0.440128 -11.0763 -14.038 -3.56709 -0.0 0.0 0.0 -0.0 0.0 0.0 4.44615e-14 -1.10144e-13 3.03967e-13 47.6834 4.63396 31.619 -22.9088 -17.1834 46.3263 -1.20973 -29.5965 -4.57837 -6.26605e-10 -1.4828e-08 -1.92834e-10 -1.07574e-09 -2.5724e-08 -3.48369e-10 -6.26607e-10 -1.48279e-08 -1.9283e-10 7.73091 5.47488 0.417314 -6.26605e-10 -1.48279e-08 -1.92833e-10 2.90554 0.965183 0.102902 -6.26598e-10 -1.48279e-08 -1.92835e-10 10.2786 0.731801 0.0259123 -6.26614e-10 -1.4828e-08 -1.92827e-10 2.22167 -0.733487 -0.20892 4.43143e-14 -1.10145e-13 3.0387e-13 -70.9482 -8.90275 25.2868 11.5054 -5.10146 -20.6688 0.00686246 -0.760778 0.107482 -4.18625e-10 -5.00222e-10 3.49708e-10 -7.24608e-10 -8.61806e-10 6.05933e-10 -4.1863e-10 -5.0022e-10 3.49714e-10 -7.73091 5.47488 -0.417314 -4.18625e-10 -5.00223e-10 3.49702e-10 -2.90554 0.965183 -0.102902 -4.18629e-10 -5.00224e-10 3.49702e-10 -10.2786 0.731801 -0.0259123 -4.18618e-10 -5.00224e-10 3.49693e-10 -2.22167 -0.733487 0.20892 -2.03217e-16 0.0 -3.88251e-19 8.67219 -3.27883 -6.31546 -0.0598161 24.8914 0.492238 -6.59421 -8.00128 -28.2659 2.03217e-16 0.0 3.88251e-19 17.3437 -32.3645 6.49986 1.43964 64.799 -1.88315 1.2996 -0.000174995 6.72056
